<mxfile host="app.diagrams.net" modified="2022-08-03T00:10:21.058Z" agent="5.0 (Windows NT 10.0; Win64; x64) AppleWebKit/537.36 (KHTML, like Gecko) Chrome/103.0.0.0 Safari/537.36" etag="DPq0CGrXsZ_AVa9Ob2ri" version="20.2.2" type="github">
  <diagram id="3HrhnjzEaIMouBbKhWvv" name="Page-1">
    <mxGraphModel dx="1038" dy="547" grid="1" gridSize="10" guides="1" tooltips="1" connect="1" arrows="1" fold="1" page="1" pageScale="1" pageWidth="850" pageHeight="1100" math="0" shadow="0">
      <root>
        <mxCell id="0" />
        <mxCell id="1" parent="0" />
        <mxCell id="IOOcZ9b5ZcKWipSCDIMJ-9" style="edgeStyle=orthogonalEdgeStyle;rounded=0;orthogonalLoop=1;jettySize=auto;html=1;entryX=0.5;entryY=0;entryDx=0;entryDy=0;" edge="1" parent="1" source="IOOcZ9b5ZcKWipSCDIMJ-1" target="IOOcZ9b5ZcKWipSCDIMJ-3">
          <mxGeometry relative="1" as="geometry" />
        </mxCell>
        <mxCell id="IOOcZ9b5ZcKWipSCDIMJ-10" style="edgeStyle=orthogonalEdgeStyle;rounded=0;orthogonalLoop=1;jettySize=auto;html=1;entryX=0.5;entryY=0;entryDx=0;entryDy=0;" edge="1" parent="1" source="IOOcZ9b5ZcKWipSCDIMJ-1" target="IOOcZ9b5ZcKWipSCDIMJ-2">
          <mxGeometry relative="1" as="geometry" />
        </mxCell>
        <mxCell id="IOOcZ9b5ZcKWipSCDIMJ-1" value="Teste de estanqueidade&amp;nbsp;" style="rounded=1;whiteSpace=wrap;html=1;" vertex="1" parent="1">
          <mxGeometry x="330" y="20" width="120" height="60" as="geometry" />
        </mxCell>
        <mxCell id="IOOcZ9b5ZcKWipSCDIMJ-12" style="edgeStyle=orthogonalEdgeStyle;rounded=0;orthogonalLoop=1;jettySize=auto;html=1;entryX=0.5;entryY=0;entryDx=0;entryDy=0;" edge="1" parent="1" source="IOOcZ9b5ZcKWipSCDIMJ-2" target="IOOcZ9b5ZcKWipSCDIMJ-6">
          <mxGeometry relative="1" as="geometry" />
        </mxCell>
        <mxCell id="IOOcZ9b5ZcKWipSCDIMJ-2" value="VGL de operação contínua no mandril de 1&quot;" style="rounded=1;whiteSpace=wrap;html=1;" vertex="1" parent="1">
          <mxGeometry x="470" y="120" width="120" height="60" as="geometry" />
        </mxCell>
        <mxCell id="IOOcZ9b5ZcKWipSCDIMJ-11" style="edgeStyle=orthogonalEdgeStyle;rounded=0;orthogonalLoop=1;jettySize=auto;html=1;" edge="1" parent="1" source="IOOcZ9b5ZcKWipSCDIMJ-3" target="IOOcZ9b5ZcKWipSCDIMJ-6">
          <mxGeometry relative="1" as="geometry" />
        </mxCell>
        <mxCell id="IOOcZ9b5ZcKWipSCDIMJ-3" value="VGL a ser testada no mandril de 1 1/2&quot;" style="rounded=1;whiteSpace=wrap;html=1;" vertex="1" parent="1">
          <mxGeometry x="190" y="120" width="120" height="60" as="geometry" />
        </mxCell>
        <mxCell id="IOOcZ9b5ZcKWipSCDIMJ-22" style="edgeStyle=orthogonalEdgeStyle;rounded=0;orthogonalLoop=1;jettySize=auto;html=1;entryX=0.5;entryY=0;entryDx=0;entryDy=0;" edge="1" parent="1" source="IOOcZ9b5ZcKWipSCDIMJ-6" target="IOOcZ9b5ZcKWipSCDIMJ-21">
          <mxGeometry relative="1" as="geometry" />
        </mxCell>
        <mxCell id="IOOcZ9b5ZcKWipSCDIMJ-6" value="Curva de desempenho da VGL:&lt;br&gt;1015 psi&lt;br&gt;2036 psi" style="rounded=1;whiteSpace=wrap;html=1;" vertex="1" parent="1">
          <mxGeometry x="330" y="210" width="120" height="60" as="geometry" />
        </mxCell>
        <mxCell id="IOOcZ9b5ZcKWipSCDIMJ-24" style="edgeStyle=orthogonalEdgeStyle;rounded=0;orthogonalLoop=1;jettySize=auto;html=1;entryX=1;entryY=0.5;entryDx=0;entryDy=0;" edge="1" parent="1" source="IOOcZ9b5ZcKWipSCDIMJ-21" target="IOOcZ9b5ZcKWipSCDIMJ-23">
          <mxGeometry relative="1" as="geometry">
            <Array as="points">
              <mxPoint x="640" y="320" />
            </Array>
          </mxGeometry>
        </mxCell>
        <mxCell id="IOOcZ9b5ZcKWipSCDIMJ-21" value="Abri válvula do mandril de 1 1/2&quot;" style="rounded=1;whiteSpace=wrap;html=1;" vertex="1" parent="1">
          <mxGeometry x="580" y="240" width="120" height="60" as="geometry" />
        </mxCell>
        <mxCell id="IOOcZ9b5ZcKWipSCDIMJ-27" style="edgeStyle=orthogonalEdgeStyle;rounded=0;orthogonalLoop=1;jettySize=auto;html=1;" edge="1" parent="1" source="IOOcZ9b5ZcKWipSCDIMJ-23" target="IOOcZ9b5ZcKWipSCDIMJ-26">
          <mxGeometry relative="1" as="geometry" />
        </mxCell>
        <mxCell id="IOOcZ9b5ZcKWipSCDIMJ-23" value="Iniciar o teste, manter a vazão constante até atingir o volume de 400 bbl" style="rounded=1;whiteSpace=wrap;html=1;" vertex="1" parent="1">
          <mxGeometry x="320" y="290" width="140" height="60" as="geometry" />
        </mxCell>
        <mxCell id="IOOcZ9b5ZcKWipSCDIMJ-29" style="edgeStyle=orthogonalEdgeStyle;rounded=0;orthogonalLoop=1;jettySize=auto;html=1;" edge="1" parent="1" source="IOOcZ9b5ZcKWipSCDIMJ-26" target="IOOcZ9b5ZcKWipSCDIMJ-28">
          <mxGeometry relative="1" as="geometry" />
        </mxCell>
        <mxCell id="IOOcZ9b5ZcKWipSCDIMJ-26" value="Acionar a parada da bomba, bloquear a válvula do mandril de 1 1/2&quot; e despressurizar a unidade" style="rounded=1;whiteSpace=wrap;html=1;" vertex="1" parent="1">
          <mxGeometry x="80" y="290" width="170" height="60" as="geometry" />
        </mxCell>
        <mxCell id="IOOcZ9b5ZcKWipSCDIMJ-31" style="edgeStyle=orthogonalEdgeStyle;rounded=0;orthogonalLoop=1;jettySize=auto;html=1;entryX=0;entryY=0.5;entryDx=0;entryDy=0;" edge="1" parent="1" source="IOOcZ9b5ZcKWipSCDIMJ-28" target="IOOcZ9b5ZcKWipSCDIMJ-30">
          <mxGeometry relative="1" as="geometry" />
        </mxCell>
        <mxCell id="IOOcZ9b5ZcKWipSCDIMJ-28" value="Abri válvula do mandril de 1&quot;" style="rounded=1;whiteSpace=wrap;html=1;" vertex="1" parent="1">
          <mxGeometry x="105" y="380" width="120" height="60" as="geometry" />
        </mxCell>
        <mxCell id="IOOcZ9b5ZcKWipSCDIMJ-33" style="edgeStyle=orthogonalEdgeStyle;rounded=0;orthogonalLoop=1;jettySize=auto;html=1;" edge="1" parent="1" source="IOOcZ9b5ZcKWipSCDIMJ-30" target="IOOcZ9b5ZcKWipSCDIMJ-32">
          <mxGeometry relative="1" as="geometry" />
        </mxCell>
        <mxCell id="IOOcZ9b5ZcKWipSCDIMJ-30" value="Acionar a bomba e repetir teste erosional para mandril de 1&quot;" style="rounded=1;whiteSpace=wrap;html=1;" vertex="1" parent="1">
          <mxGeometry x="290" y="380" width="120" height="60" as="geometry" />
        </mxCell>
        <mxCell id="IOOcZ9b5ZcKWipSCDIMJ-32" value="&amp;nbsp;Repetir teste erosional para mandril de 1 1/2&quot; para um volume de 200 bbl." style="rounded=1;whiteSpace=wrap;html=1;" vertex="1" parent="1">
          <mxGeometry x="480" y="380" width="150" height="60" as="geometry" />
        </mxCell>
      </root>
    </mxGraphModel>
  </diagram>
</mxfile>
